<?xml version="1.0" encoding="utf-8"?>
<!-- Generator: Adobe Illustrator 16.0.0, SVG Export Plug-In . SVG Version: 6.00 Build 0)  -->
<!DOCTYPE svg PUBLIC "-//W3C//DTD SVG 1.0//EN" "http://www.w3.org/TR/2001/REC-SVG-20010904/DTD/svg10.dtd">
<svg version="1.0" id="Ebene_1" xmlns="http://www.w3.org/2000/svg" xmlns:xlink="http://www.w3.org/1999/xlink" x="0px" y="0px"
	 width="75px" height="100px" viewBox="0 0 75 100" enable-background="new 0 0 75 100" xml:space="preserve">
<g id="g2553" transform="translate(61.622316,0)">
	<path id="path2412" fill="#F60000" d="M-8.263,98.524c-4.648-0.631-11.125-3.167-13.672-5.353
		c-4.895-4.204-3.308-9.238,3.635-11.532c7.801-2.578,20.816-1.104,26.869,3.041C19.595,92.234,9.086,100.879-8.263,98.524z"/>
	<path id="path2392" fill="#F60000" d="M-26.962,66.894c-2.364-0.299-3.237-0.893-4.239-2.88
		c-2.584-5.126-11.345-20.559-17.814-31.385c-3.675-6.15-8.525-17.991-9.922-21.653l-2.539-6.66
		c-0.57-5.432,30.8-5.347,51.418-0.986c0.419,0.12,2.389,17.39,3.618,33.323L-4.2,65.622l-4.278,0.469
		C-16.225,66.939-23.935,67.275-26.962,66.894z"/>
</g>
<g>
</g>
<g>
</g>
<g>
</g>
<g>
</g>
<g>
</g>
<g>
</g>
<g>
</g>
<g>
</g>
<g>
</g>
<g>
</g>
<g>
</g>
<g>
</g>
<g>
</g>
<g>
</g>
<g>
</g>
</svg>
