<?xml version="1.0" encoding="utf-8"?>
<!-- Generator: Adobe Illustrator 16.0.0, SVG Export Plug-In . SVG Version: 6.00 Build 0)  -->
<!DOCTYPE svg PUBLIC "-//W3C//DTD SVG 1.0//EN" "http://www.w3.org/TR/2001/REC-SVG-20010904/DTD/svg10.dtd">
<svg version="1.0" id="Ebene_1" xmlns="http://www.w3.org/2000/svg" xmlns:xlink="http://www.w3.org/1999/xlink" x="0px" y="0px"
	 width="25px" height="40px" viewBox="0 0 25 40" enable-background="new 0 0 25 40" xml:space="preserve">
<g>
	<path d="M12.1,31.438h3.973c2.953,0,4.43,1.043,4.43,3.125c0,1.428-0.521,2.539-1.564,3.336c-1.043,0.795-2.502,1.193-4.377,1.193
		h-5.59c-2.063,0-3.686-0.422-4.869-1.264c-1.184-0.844-1.775-1.99-1.775-3.441c0-0.771,0.246-1.756,0.738-2.949l5.801-14.252
		l0.387-0.983c1.078-2.645,2.813-3.967,5.203-3.967c0.984,0,1.834,0.328,2.549,0.983c0.715,0.656,1.072,1.439,1.072,2.352
		c0,0.75-0.316,1.896-0.949,3.44L12.1,31.438z M16.74,1.036c1.359,0,2.514,0.474,3.463,1.422c0.949,0.948,1.424,2.101,1.424,3.458
		c0,1.358-0.475,2.51-1.424,3.458c-0.949,0.948-2.104,1.422-3.463,1.422s-2.514-0.474-3.463-1.422
		c-0.949-0.948-1.424-2.1-1.424-3.458c0-1.357,0.475-2.51,1.424-3.458C14.227,1.51,15.381,1.036,16.74,1.036z"/>
</g>
<g>
</g>
<g>
</g>
<g>
</g>
<g>
</g>
<g>
</g>
<g>
</g>
<g>
</g>
<g>
</g>
<g>
</g>
<g>
</g>
<g>
</g>
<g>
</g>
<g>
</g>
<g>
</g>
<g>
</g>
</svg>
